<?xml version="1.0" encoding="utf-8"?>
<!-- Generator: Adobe Illustrator 22.1.0, SVG Export Plug-In . SVG Version: 6.00 Build 0)  -->
<svg version="1.1" xmlns="http://www.w3.org/2000/svg" xmlns:xlink="http://www.w3.org/1999/xlink" x="0px" y="0px"
	 viewBox="0 0 822 1122" style="enable-background:new 0 0 822 1122;" xml:space="preserve">
<style type="text/css">
	.st0{fill:#98BC17;}
	.st1{fill:#E6CB49;}
	.st2{display:none;}
	.st3{display:inline;fill:#CECECE;stroke:#000000;stroke-width:20;stroke-miterlimit:10;}
	.st4{display:inline;fill:none;stroke:#000000;stroke-width:13;stroke-miterlimit:10;}
	.st5{display:inline;fill:none;stroke:#000000;stroke-width:10;stroke-miterlimit:10;}
	.st6{display:inline;fill:#DDDDDD;stroke:#000000;stroke-width:16;stroke-miterlimit:10;}
</style>
<g id="Calque_2">
	<g id="SOURCILFUMANT">
		<g>
			<rect x="-8" y="-9" class="st0" width="835" height="1139"/>
			<path class="st1" d="M67,75c0,0,274-4,320-3s367-1,367-1l7,991l-697-12L67,75z"/>
			<path class="st0" d="M777.3,643.8l11.9-8.1l-14-3.9l14-21.6l-14-6.5l14-7.8l-10.8-11.7l10.8-7.3c0,0-11.7-11.6-10.6-19.3
				l10.6-4.2l-17.9-9.9l17.9-11.7l-15.5-9.4c0,0,15.5-3.5,15.5-11.5s-12.4-13-12.4-13l12.4-5.2l-15.8-14.3l15.8-5.7l-12.1-14.1
				l12.1-12.5l-19.5-12.3l19.5-7l-9.8-6.3l9.8-6.8c0,0-14-7.9-12.7-15.4l12.7-8.3c0,0-13.4-7.8-14-13.3l14-12l-10-10.4l10-3.6
				l-21-12l21-10.4l-14-12.3l14-2.3l-13.7-16.2l13.7-10.2l-17.4-6.8l17.4-11.7l-20.5-16.4c0,0,20.5-1.6,20.5-11.2
				s-15.3-14.3-15.3-14.3l15.3-5.5l-15.8-14.6l15.8-5.7l-21.6-19l21.6-11.5c0,0-15.4-8.5-16.1-16.9l16.1-11.5l-14.5-8.9l14.5-5.7
				l-16.1-15.4l16.1-11.5l-20-11.5c0,0,19.9-7.3,18.6-13.9c0-0.2-0.1-0.4-0.1-0.6c-2.5-6.4-20-5.1-20-5.1l8.6-16c0,0,0,0,0,0
				l-20.9,6.2l2.4-19.1c0,0,0,0,0,0l-14.2,8.7l-4.6-12.4l-12.7,16c0,0-3.4-16-11.3-16s-7.6,15.5-7.6,15.5l-22.8-15.5L677,47.2
				l-6.3-10.3L659.2,50l-5.8-13.2l-17.8,20.7l-17.8-20.7c0,0-5,19.6-12.8,18.1l-11.8-18.1l-6.3,14.5L579,36.9l-7.1,10.3l-7.1-10.3
				l-11.5,19.7c0,0-6.4-19.7-14.4-19.7S527.1,55,527.1,55l-11.5-18.1l-4.5,9l-8.4-9l-3.9,17.6l-16-17.6l-9.7,14.5l-6.8-14.5
				L444,55.3l-11.8-18.4c0,0-12.9,17.5-20.9,16.8l-14.4-16.8l-3.4,10.8l-11-10.8l-13.6,21c0,0-2.9-21-15.2-21s-21.7,14-21.7,14
				l-9.2-14L310.2,55l-9.7-18.1l-14.9,9.5l-3.9-9.5c0,0-11.7,17.5-18.9,17.6l-14.7-17.6L240,51.6l-11.8-14.7l-9.2,15
				c0,0-3.8-15-12.3-15c-8.5,0-8.1,16-8.1,16l-13.6-16l-4.7,11.9l-11.8-11.9l-3.9,12.7l-7.1-12.7l-19.9,15.8l-8.6-15.8
				c0,0,0.8,15.9-7.9,16.3L109,36.9l-11,15.5l-8.6-15.5l-8.6,20.2c0,0-6.7-19.5-13.2-17.4c-0.2,0.1-0.4,0.1-0.6,0.2
				C60.5,43,66,58.6,66,58.6l-22-2.1c0,0,0,0,0,0l11,13.6l-20.8,8.6c0,0,0,0.1,0,0.1l10.4,13l-11.1,9.6l13.1,12.3
				c0,0-12.2,6.7-13.1,11.5v1.2c1.3,4.8,10.7,9.6,10.7,9.6l-10.7,8.5v0.2l10.7,10.1l-10.7,7.2v0.1l10.7,9.3l-10.7,10.7l11.8,11.7
				c0,0-11.8,7.3-11.8,11.2c0,3.9,5,9.1,5,9.1l-5,4.7l8.4,10.9l-8.4,5l9.5,12.8l-9.5,9.4l10.7,14.1c0,0-10.7,0.1-10.7,6.5
				s12.1,12,12.1,12l-12.1,13l10.7,5.2l-10.7,13.8l10.7,9.4l-10.7,4.7l10.7,13.6c0,0-9.4,0.7-10.7,4.3v1.7c1.6,5.1,9.5,7,9.5,7
				l-9.5,9.9l10.7,8.9c0,0-10.7,5.6-10.7,9.9c0,4.3,7.6,10.9,7.6,10.9l-7.6,9.1l10.7,7.3l-10.7,10.9c0,0,10.3,2.3,10.7,9.1
				l-10.7,9.4l10.7,8.6l-10.7,9.3v0.2l10.7,6.7c0,0-9.7,5.1-10.7,9v1.2c1.3,3.9,7.9,9.6,7.9,9.6l-7.9,6.5l8.9,9.1l-8.9,8.3l9.5,16.7
				l-9.5,2.3l10.7,12l-10.7,10.4l9.7,5.8l-9.7,14l10.7,8.1c0,0-9.9,4.7-10.7,9.7v1.3c1.1,5.3,10.7,4.7,10.7,4.7L33.5,613l8.7,7.6
				l-8.7,8.1l9.5,7.3l-9.5,7.6l15,8.3l-15,11.2l13.9,4.2c0,0-13,7.5-13.9,14.6v1.6c1.2,7.4,14.2,5,14.2,5L33.5,703l12.6,4.7
				L33.5,715l10.7,6.3l-10.7,9.6l10.7,8.1c0,0-10.7,6.3-10.7,12s10.7,4.7,10.7,4.7l-10.7,15.6l14.4,2.6l-14.4,14.3l14.2,7.8
				c0,0-12.3,9.5-14.2,15.5v2.6c2,4.9,13.9,2.3,13.9,2.3l-13.9,20.1c0,0,13.8-0.4,16,3.9l-16,18.5l15,5.2l-15,11.7l17.8,21.6
				L33.5,905c0,0,14.7,6.9,15.5,12.8l-15.5,12.5l10.6,8.3l-10.6,7l14.2,10.2c0,0-14.2,5.1-14.2,10.9c0,5.9,10.6,12,10.6,12l-10.6,6
				l10.6,12l-10.6,5.2l12.9,11.5c0,0-11.1,4.1-12.9,8.9v2.6c2.5,5.7,10.6,10.7,10.6,10.7l-10.6,4.7c0,0,16.4,4.7,17.8,11l-13,10.3
				c0,0,0,0,0,0l18.2,2.4l-6.6,13.1c0,0,0,0,0,0l20.2-7.4c0,0,4.1,20,8.8,20.3c0,0,0.1,0,0.1,0c4.7,0.1,12.5-13.3,12.5-13.3
				l11.8,13.5l14.7-13l7.9,13l13.4-11.2l6.8,11.2c0,0,10.9-16.5,14.4-13.3l9.4,13.3l9.2-14.6c0,0,4.8,14.6,10.7,14.6
				s16.2-13.3,16.2-13.3l12.6,13.3l12.8-11.5l15.5,11.5l8.9-16.4l9.7,16.4l14.4-15.6c0,0,6.6,15.6,15.5,15.6
				c8.9,0,5.8-15.1,5.8-15.1l17.8,15.1l9.4-13.5l11.3,13.5c0,0,10.6-18,14.7-18l10,18l7.3-12.8l7.3,12.8c0,0,13.1-16.9,18.6-14.9
				l6.3,14.9l12.6-10.2l14.4,10.2l7.9-13.5l16,13.5l9.2-13.3c0,0,8.1,13.3,14.4,13.3s12.6-13.3,12.6-13.3l12.6,13.3l14.9-9.4
				l6.6,9.4l13.9-16.9l12.3,16.9c0,0,6.7-14.1,15.2-13.3l13.6,13.3l8.4-13.3l8.6,13.3l22.5-20.6c0,0,8.6,20.6,19.9,20.6
				c11.3,0,17-16.4,17-16.4l12.6,16.4l11.3-12.2l8.1,12.2l15.5-17.7l14.4,17.7l8.6-14.3c0,0,11.4,14.1,18.6,13.8
				c0.4-0.1,0.8-0.1,1.2-0.2c6.6-2-0.3-14.2-0.3-14.2l22.6,4.7c0,0,0,0,0,0l-8.6-17.7l23.9-1.2c0,0,0,0,0,0l-9.3-11.3l13.7-4.9
				c0,0,0,0,0,0c-0.1-0.1-13.5-11.6-13.2-16.5l13.2-2.1l-12.2-13.8c0,0,12.4-5,12.4-9.4c0-4.4-11.9-15.1-11.9-15.1l11.9-6.5
				l-18.2-9.4l18.2-6.5l-12.9-14.1l12.9-8.6c0,0-15.4-12-14.2-20.1l14.2-2.6l-11.1-9.9l11.1-7.3l-14.8-9.6c0,0,14.8-5.3,14.8-12.3
				c0-6.9-11.6-14.1-11.6-14.1l11.6-3.9L776,846.6l13.2-1.6L775,830.4l14.2-13.3c0,0-14.2-7.9-12.9-16.2l12.9-8.6l-20.5-13
				c0,0,20.5-8.3,20.5-18c0-9.6-12.9-11.5-12.9-11.5l12.9-5.5l-15.8-12l15.8-7l-9-7.8l9-6.8l-12.7-19l12.7-2.6l-17.6-20.1
				c0,0,16.5-0.5,17.6-10.4v-2.1C788.4,648.1,777.3,643.8,777.3,643.8z M753.5,132.1l-9.5,8.7c0,0,8.7,3.3,9.5,9.4
				c0.7,6.1-17.5,10.8-17.5,10.8l17.5,10.4l-13,18.8l13,10.8l-14.4,6.3c0,0,13.3,9.4,14.3,13.9c1.1,4.5-16.8,7.3-16.8,7.3l16.8,14.9
				l-10.1,10.1l10.1,6.6l-15,7l15,14.6l-10.8,3.8c0,0,8.7,9.6,10.7,15.6c1.9,6.1-14.9,10.1-14.9,10.1l14.9,16l-12.1,11.1l12.1,9.4
				l-18,16l18,14.6l-10.3,4.2l10.3,10.1l-13.5,23.3c0,0,12.6,10.9,13.4,17.7c0.9,6.8-15.9,0.7-15.9,0.7l15.9,20.5l-20.8,7.3
				l20.8,14.9l-13.1,14.2c0,0,11.7,8.2,13,20.2c1.3,12-19,19.8-19,19.8l19,18.1l-10.6,3.1l10.6,9.3l-13,14c0,0,11.4,6.3,12.9,17
				C754.6,603.3,743,612,743,612l10.1,12.9l-12.2,20.5l12.2,16.7l-11.8,4.9l11.8,12.9l-12.2,17c0,0,11.5,9.6,12.2,15.6
				c0.6,6.1-11.1,11.1-11.1,11.1l11.1,13.2l-11.1,17l11.1,13.6l-12.5,7.3c0,0,11.9,14.6,12.5,21.5c0.6,7-12.1,13.2-12.1,13.2
				l12.1,11.1l-16.7,9.4l16.7,13.6L743,857l10,7l-13.2,16.3c0,0,11.7,4,13.1,10.4c1.4,6.4-14.5,13.9-14.5,13.9l14.5,10.8l-13.8,8.7
				L753,938c-3-3.8-16.2,15.3-16.2,15.3l16.2,11.5L740.2,980l12.8,9.7l-14.2,9.7l14.2,12.1c-7.9-4.7-19.7,7.3-19.7,7.3l10,12.2
				l-21.2-1.8c-2.5,3.8,0,17.2,0,17.2l-14.3-11.3l-6.6,14.6c-4.7-9.9-19.6-13.5-19.6-13.5l-8,13.5l-18.2-9.7l-14.3,9.7l-13.6-12.5
				l-7.7,12.5c0.2-4.9-17.5-11.8-17.5-11.8l-4.5,11.8l-18.5-13.5c-7.9,0-9.8,13.5-9.8,13.5l-15.4-10.4l-5.6,10.4l-14-14.6
				l-12.2,14.6c1.2-11.5-12.2-11.8-12.2-11.8l-11.2,11.8l-8.7-15.6c-7.3,0-16.1,15.6-16.1,15.6l-17.1-13.5l-7,13.5l-14-10.8
				l-13.3,10.8c1.7-10.8-16.4-13.9-16.4-13.9l-9.8,13.9l-8-13.9c-8.9,0-15,13.9-15,13.9l-12.6-12.2l-2.1,12.2l-15.7-13.5l-5.2,13.5
				l-9.1-10.1l-14,10.1l-10.5-13.2c-4.5-0.2-9.4,13.2-9.4,13.2l-16.4-12.2l-5.9,12.2l-9.1-9.7l-7.7,9.7l-8.4-13.2
				c-4.4,0.3-12.9,13.2-12.9,13.2l-11.2-11.1l-3.8,11.1l-12.9-10.4l-11.9,10.4l-4.5-13.5c-7.7-1.6-15.4,13.5-15.4,13.5l-9.4-14.6
				l-16.1,14.6l-3.8-16.7l-13.3,16.7l-11.2-11.5l-15.6,7.6l6.9-16.7c-4.5-3.6-25.5,3.4-25.5,3.4l10.8-20.4
				c-4.9-3.8-21.1,2.3-21.1,2.3l13.7-17.6c-4.2-7.3-16-6.6-16-6.6l13.6-14.6l-13.6-15.3l19.9-5.9c-2.3-6.3-19.9-13.6-19.9-13.6
				l17.4-11.5l-17.4-11.1l16.4-10.8c-2.4-10.4-16.4-15.6-16.4-15.6l12.5-14.9l-12.5-11.5l15.3-13.2c-2.4-6.3-15.3-11.1-15.3-11.1
				l13.6-13.2l-13.6-9.7l16-11.5c-1.4-6.4-16-9.4-16-9.4l9.9-10.1l-9.9-5.9l12.2-8.7c0.2-4.3-12.2-8.3-12.2-8.3l13.9-7.3
				c-2.4-4.9-13.9-11.5-13.9-11.5l12.5-7.6l-12.5-11.5l16.4-11.8c-2.4-7.5-16.4-9-16.4-9l14.6-13.9c-2.6-7.6-14.6-7-14.6-7L86.6,670
				c-1.6-5.6-12.5-6.3-12.5-6.3l14.6-16l-14.6-7.6l11.5-11.5c-1.9-6.1-11.5-7.6-11.5-7.6l6.9-8.7l-6.9-7l9.9-16l-9.9-14.6l9.9-6.3
				l-9.9-5l13.2-11c0,0-13.2-10.9-13.2-18.4c0-7.5,9.9-9.7,9.9-9.7l-9.9-11.8l12.5-13.2l-12.5-3.8l11.8-23.3H74.1l12.2-18.8
				c-1.2-7.6-12.2-9-12.2-9l9.9-15.3c0,0-9.9-13.2-9.9-14.2c0-1,11.8-16.3,11.8-16.3L74.1,391l12.5-8.3
				c-0.7-8.3-12.5-14.2-12.5-14.2l12.2-14.2c0,0-10.5-8.5-10.5-17s11.5-9,11.5-9c-0.9-6.1-13.2-11.5-13.2-11.5l9.9-13.2l-9.9-6.3
				L88,284.6c0,0-13.9-5-13.9-11.1s12.9-9.7,12.9-9.7l-12.9-10.1L90.8,237c-2.8,3.6-16.7-8-16.7-8l18.4-15.6c0,0-15.5-8.7-16.4-16
				c-0.9-7.3,17.8,0,17.8,0c0.7-14.4-19.8-18.1-19.8-18.1l12.2-11.1l-12.2-15.3h12.2l-12.2-12.2l15-7c0,0-12.9-5-15-13
				c-2-7.9,17.4-12,17.4-12l-9.4-13.2l22.7-4.9c0,0-2.8-12.2,0.8-16.3c3.6-4.1,12.1,12.8,12.1,12.8l12.6-15.9l9.4,13.4l9.4-13.4
				l8.4,13.1l15-13.1l3.8,14.5c0,0,7.2-12.2,14-14.3c6.8-2.1,7,14.6,7,14.6l24.8-14.6l8.4,15.7l12.6-15.7l7.3,9.1l12.9-9.1l8.7,12.9
				c0,0,18-13.7,29-12.9s10.1,14.9,10.1,14.9l13.6-14.9l13.3,13.6c0,0,9.1-12.3,21.3-13.5c12.2-1.2,12.9,14.2,12.9,14.2l15-14.2
				l6.6,11.1l11.5-11.1l19.6,11.1l10.8-11.1l7,12.8c0,0,20.3-10.8,30.7-12.6s15,13.3,15,13.3l7.7-13.3L510,83.4l4.2-11.6l8,12.6
				l15.4-12.6l9.8,10.9l5.2-10.9l8.4,12.3c0,0,3.3-8.9,11.2-11.9c7.9-3,10.8,12.6,10.8,12.6l11.2-12.6l9.8,14.7l11.2-14.7l7.7,11.2
				l8-11.2l10.8,13.3c0,0,9.4-11.6,15.7-13.2c6.3-1.5,10.5,12.8,10.5,12.8l10.8-12.8L684,82l12.9-9.7l7.7,13.9l11.8-13.9l3.6,16.7
				c0,0,19.4-8.2,22.9,0c3.5,8.2-7.9,18-7.9,18l19,7.4l-17.3,7.5L753.5,132.1z"/>
		</g>
	</g>
	<path class="st0" d="M87,883.2l12.1,15l11.9-15l11,13l9.9-15c0,0,0.1,16,10.1,15l12-13l12.1,18l5.9-16l14.1,15.9
		c0,0,7.9-16,13.9-15.1c6,1,8,10,8,10l10-9l11.1,17l9.9-14l9,8l9-8l9.1,14l8-12c0,0,10,12,15,11.9l5-12l9,12l7-12l15,8.9l11-11l8,8
		l11-8c0,0,5.1,15,7.1,14c2-1,9.9-14,9.9-14l7,8l9-11c0,0,11.1,18,12.1,17c1-1,6.9-14,6.9-14s11.1,14,12.1,14c1,0,7.9-15,7.9-14
		s5,8,5,8l7-8c0,0,8,12,18,10.9l6-8l7,7l9-10c0,0,6,6,8,8c2,2,8-8,8-8s7,5,12,8s8-8,8-8l9,8l7-8l13,11c0,0-3-8,7-8
		c10,0,14,7.9,14,7.9l9-8l13,8l6-8l9,11c0,0,8-12,7-11c-1,1,9,9,9,9l5-9l9,11l7-11l7,8l4-8l13,11l5-11l7,8l9-8l9,11l6-11l9,11l10-11
		l10,11l22-11.1l-0.1-25l-14-8.9l-8,7l-6-7l-5,9l-7-9l-11,6l-6-6l-6,9l-12-9l-7,9l-7-9l-5,9l-8-9l-4,9l-11-12c0,0-3,13-9,12
		s-10-12-10-12l-10,9l-5-9l-12,9l-7-9l-8,9l-10-9l-5,10c0,0-6-10-14-9.9l-5,8l-10-10l-7,11l-11.1-15c0,0-6,13-9.9,14s-9-10-9-10
		l-4,10l-10-10l-10,8l-4-12l-10,13l-9-9l-5,7l-12-11l-6,9l-8-5l-8,8l-10-12l-7,9l-13-5l-3,7l-10-11l-8,9l-6-9l-8,9l-15.1-13.9
		l-10,12l-12-10l-8,12l-12-12l-9,12l-10-9l-6,9c0,0-3.1-16-11.1-14l-7.9,14l-8.1-14l-11.9,14l-4.1-14l-11,9l-11-9l-10,12l-7-12
		l-10,9l-9-9l-8.9,14l-13.1-14l-6.9,14l-10-9l-7,4l-12-9l-6,9l-11-9l-16,9.1l-3.4,25L87,883.2z"/>
</g>
<g id="Calque_4" class="st2">
	<path class="st3" d="M-0.5,114.5c0,0,425,3,434,0s39,9,16,60c0,0-22,13-35,19s-18,61-18,61l-93,561c0,0-17,47-304,48l-154-70
		l18-530L-0.5,114.5z"/>
	<path class="st4" d="M219,404c0,0,7,16,14,16S219,404,219,404z"/>
	<polygon class="st5" points="247,391 257,407 275,402 	"/>
	<path class="st6" d="M368.3,456.7c0,0,67.2,64.8-52.8,96.8s-153,12-153,12s-122.8,2.1-300.9-246.4s-26.1,88.4-26.1,88.4
		s120,153,185,187s141,54,156,50s170-24,192-61S394.1,471,368.3,456.7z"/>
	<path class="st6" d="M177,201c0,0,224.4,0.4,260.7-15.3"/>
</g>
<g id="Calque_3">
</g>
</svg>
