<?xml version="1.0" encoding="utf-8"?>
<!-- Generator: Adobe Illustrator 22.1.0, SVG Export Plug-In . SVG Version: 6.00 Build 0)  -->
<svg version="1.1" id="Calque_2" xmlns="http://www.w3.org/2000/svg" xmlns:xlink="http://www.w3.org/1999/xlink" x="0px" y="0px"
	 viewBox="0 0 500 198" style="enable-background:new 0 0 500 198;" xml:space="preserve">
<style type="text/css">
	.st0{fill:#FFFFFF;}
	.st1{font-family:'GROBOLD';}
	.st2{font-size:70px;}
	.st3{clip-path:url(#SVGID_2_);}
	.st4{clip-path:url(#SVGID_4_);}
	.st5{clip-path:url(#SVGID_6_);fill:#D3A47D;}
	.st6{clip-path:url(#SVGID_6_);fill:#EDBF8E;}
	.st7{opacity:0.14;clip-path:url(#SVGID_6_);}
	.st8{clip-path:url(#SVGID_8_);}
	.st9{clip-path:url(#SVGID_6_);fill:#F00015;}
	.st10{clip-path:url(#SVGID_6_);fill:#C11010;}
</style>
<text transform="matrix(1 0 0 1 10.8208 121.1387)" class="st0 st1 st2">Garogn    mes</text>
<g>
	<g>
		<defs>
			<rect id="SVGID_1_" x="268" y="24" width="83" height="111.9"/>
		</defs>
		<clipPath id="SVGID_2_">
			<use xlink:href="#SVGID_1_"  style="overflow:visible;"/>
		</clipPath>
		<g class="st3">
			<defs>
				<rect id="SVGID_3_" x="164.3" y="10" width="279.5" height="234.4"/>
			</defs>
			<clipPath id="SVGID_4_">
				<use xlink:href="#SVGID_3_"  style="overflow:visible;"/>
			</clipPath>
			<g class="st4">
				<defs>
					<rect id="SVGID_5_" x="164.3" y="10" width="279.5" height="234.4"/>
				</defs>
				<clipPath id="SVGID_6_">
					<use xlink:href="#SVGID_5_"  style="overflow:visible;"/>
				</clipPath>
				<path class="st5" d="M343.7,71.5c-1.9-4.3-4.2-8-6.8-11.2c-1.4-1.7-3.3-3.2-5.7-4.7c-2.4-1.4-5.2-2.5-8.3-3.2
					c-3.1-0.7-6.5-0.8-10.1-0.4c-1,0.1-1.9,0.3-2.9,0.5c-0.1,0-0.3,0.1-0.4,0.1c-0.1,0-0.2,0-0.3,0.1c-0.1,0-0.2,0-0.3,0.1
					c-0.1,0-0.2,0-0.3,0.1c-0.1,0-0.2,0-0.3,0.1c-0.1,0-0.2,0-0.3,0.1c-0.1,0-0.2,0-0.3,0.1c-0.1,0-0.2,0-0.3,0.1
					c-0.1,0-0.2,0-0.3,0.1c-0.1,0-0.2,0-0.3,0.1c-0.1,0-0.2,0-0.3,0.1c-0.1,0-0.2,0-0.3,0.1c-0.1,0-0.2,0-0.3,0.1
					c-0.1,0-0.2,0-0.3,0.1c-0.1,0-0.2,0-0.3,0.1c-0.1,0-0.2,0-0.3,0.1c-0.1,0-0.2,0-0.3,0.1c-0.1,0-0.2,0-0.3,0.1
					c-0.1,0-0.2,0-0.3,0.1c-0.5,0.1-1,0.2-1.5,0.4c-2.4,0.6-4.8,1.5-7.3,2.7c-4,2.1-7.7,4.6-11,7.5c-3.3,3-6.1,6.2-8.5,9.9
					c-2.4,3.6-4.2,7.4-5.6,11.5c-1.3,4.1-2,8.3-2.1,12.5c-0.1,4.3,0.6,8.6,1.9,12.9c1.4,4.3,3.5,8.5,6.5,12.5
					c2.7,3.6,5.7,6.3,9.1,8.2c3.4,1.9,6.9,3,10.6,3.5c3.7,0.5,7.4,0.3,11.1-0.4c0.5-0.1,0.9-0.2,1.4-0.3c0.1,0,0.2,0,0.3-0.1
					c0.1,0,0.2,0,0.3-0.1c0.1,0,0.2,0,0.3-0.1c0.1,0,0.2,0,0.3-0.1c0.1,0,0.2,0,0.3-0.1c0.1,0,0.2,0,0.3-0.1c0.1,0,0.2,0,0.3-0.1
					c0.1,0,0.2,0,0.3-0.1c0.1,0,0.2,0,0.3-0.1c0.1,0,0.2,0,0.3-0.1c0.1,0,0.2,0,0.3-0.1c0.1,0,0.2,0,0.3-0.1c0.1,0,0.2,0,0.3-0.1
					c0.1,0,0.2,0,0.3-0.1c0.1,0,0.2,0,0.3-0.1c0.1,0,0.2,0,0.3-0.1c0.1,0,0.2,0,0.3-0.1c0.1,0,0.2,0,0.3-0.1c0.1,0,0.2,0,0.3-0.1
					c0.1,0,0.2,0,0.3-0.1c3.3-0.8,6.5-1.9,9.5-3.3c3.3-1.6,6.3-3.5,9-5.8c2.7-2.3,4.9-4.7,6.6-7.3c3.4-5.4,5.6-10.8,6.7-16.2
					c1.1-5.4,1.4-10.5,0.9-15.4C346.8,80.4,345.6,75.8,343.7,71.5 M308.6,79.7c1.8,0.5,3.4,1.6,4.7,3.3c0.8,1,1.5,2.1,2,3.4
					c0.6,1.3,1,2.8,1.2,4.5c0.2,1.7,0.2,3.6,0,5.7c-0.2,2.1-0.9,4.5-1.8,7.2c-0.7,1.8-1.6,3.4-2.8,4.9c-1.2,1.5-2.6,2.7-4.2,3.7
					c-0.4,0.2-0.7,0.4-1.1,0.6c-0.8-0.1-1.6-0.2-2.4-0.5c-1.5-0.6-2.9-1.6-4.2-3.2c-1.3-1.6-2.2-3.8-2.7-6.7c-0.7-3-0.8-5.9-0.3-8.6
					c0.5-2.7,1.3-5.1,2.6-7.2c1.2-2.1,2.7-3.9,4.4-5.3c0.9-0.8,1.9-1.4,2.9-1.9C307.5,79.5,308,79.6,308.6,79.7"/>
				<path class="st6" d="M341.1,117.2c-1.7,2.6-3.9,5-6.6,7.3c-2.7,2.3-5.7,4.2-9,5.8c-3.3,1.6-6.8,2.8-10.6,3.5
					c-3.7,0.8-7.4,0.9-11.1,0.4c-3.7-0.5-7.2-1.6-10.6-3.5c-3.4-1.9-6.4-4.6-9.1-8.2c-3-4-5.2-8.2-6.5-12.5c-1.4-4.3-2-8.6-1.9-12.9
					c0.1-4.3,0.8-8.5,2.1-12.5c1.3-4.1,3.2-7.9,5.6-11.5c2.4-3.6,5.2-6.9,8.5-9.9c3.3-3,7-5.5,11-7.5c3.8-1.9,7.5-3,11.1-3.4
					c3.6-0.4,7-0.2,10.1,0.4c3.1,0.7,5.9,1.7,8.3,3.2c2.4,1.4,4.3,3,5.7,4.7c2.6,3.2,4.9,6.9,6.8,11.2c1.9,4.3,3.1,8.9,3.7,13.8
					c0.6,4.9,0.3,10.1-0.9,15.4C346.7,106.4,344.4,111.8,341.1,117.2 M320.9,81.9c-1.3-1.7-2.9-2.8-4.7-3.3
					c-1.8-0.5-3.7-0.4-5.5,0.1c-1.9,0.5-3.7,1.5-5.4,2.9c-1.7,1.4-3.2,3.2-4.4,5.3c-1.2,2.1-2.1,4.5-2.6,7.2
					c-0.5,2.7-0.4,5.6,0.3,8.6c0.6,2.9,1.5,5.1,2.7,6.7c1.3,1.6,2.6,2.7,4.2,3.2c1.5,0.6,3.2,0.7,4.9,0.4c1.7-0.3,3.4-0.9,5-1.9
					c1.6-1,3-2.2,4.2-3.7c1.2-1.5,2.2-3.1,2.8-4.9c1-2.6,1.6-5,1.8-7.2c0.2-2.1,0.3-4.1,0-5.7c-0.2-1.7-0.6-3.2-1.2-4.5
					C322.4,84,321.7,82.9,320.9,81.9"/>
				<g class="st7">
					<g>
						<defs>
							<rect id="SVGID_7_" x="300.8" y="51.6" width="47" height="30.7"/>
						</defs>
						<clipPath id="SVGID_8_">
							<use xlink:href="#SVGID_7_"  style="overflow:visible;"/>
						</clipPath>
						<path class="st8" d="M316.7,54.8c2.4,0.7,4.6,2.2,6.1,4.4c3.4,4.9,13.8,17.7,23.7,23.1c0.6,0.3,1.5-0.4,1.3-1.2
							c0,0-4.1-23.6-24.2-25.8c0,0-10.1-8.8-22.7,0.7C300.8,56,309.5,52.9,316.7,54.8"/>
					</g>
				</g>
				<path class="st9" d="M300.8,56.1c0,0,6.7-4.4,15-2.7c3,0.6,5.6,2.5,7.6,4.9c4.2,5,14.3,16.3,20.8,18.9c1.2,0.5,2.5,0.3,3.4-0.5
					c0.7-0.6,1.2-1.6,1.1-3.2c0-0.3,0-0.6,0.1-0.9c0.4-1.8,1.3-8.4-2.2-15.6c-0.6-1.2-1.3-2.4-2.2-3.6c0,0,2.6,7.1,4,2
					c0.4-1.5,0.1-2.3,0.3-4.5c0.6-5.4,2.1-18.1-7.5-25.3c-1.8-1.4-4.2-1.4-6-0.1c-1.3,1-2.7,2.6-3.5,5.3c0,0-1.6,5.1-4.3,8.2
					c0,0-3.7,0.1-5,2.8c0,0-8-1.4-11.5,4.3c0,0-9.2,0-11.5,7.2c-0.2,0.7-0.1,1.5,0.2,2.2C299.9,55.9,300.2,56.4,300.8,56.1"/>
				<path class="st10" d="M322.7,50.7c-0.4-0.4-0.8-0.7-1.2-1.1c-0.4-0.3-0.9-0.7-1.3-1c-0.9-0.6-1.8-1.2-2.8-1.6
					c-1-0.5-2-0.8-3.1-1l-0.8-0.1c-0.3,0-0.5,0-0.8,0l-0.4,0c-0.1,0-0.3,0-0.4,0L311,46c1.1-0.2,2.2-0.3,3.3-0.1
					c1.1,0.2,2.2,0.5,3.2,0.9c1,0.5,1.9,1,2.8,1.7C321.1,49.1,322,49.8,322.7,50.7"/>
				<path class="st10" d="M332.6,41.2c-0.4-0.3-0.7-0.6-1.1-0.9c-0.4-0.3-0.8-0.5-1.2-0.7c-0.4-0.2-0.9-0.4-1.3-0.5
					c-0.5-0.1-0.9-0.2-1.4-0.2c0.5-0.1,1,0,1.4,0.1c0.5,0.1,0.9,0.3,1.4,0.5C331.2,39.9,331.9,40.5,332.6,41.2"/>
				<path class="st10" d="M322.5,41.6c0.7,0.1,1.3,0.2,2,0.5c0.6,0.2,1.2,0.5,1.8,0.9c0.6,0.4,1.1,0.8,1.6,1.2
					c0.3,0.2,0.5,0.5,0.7,0.7c0.2,0.3,0.4,0.5,0.6,0.8c-0.4-0.5-0.9-1-1.4-1.4c-0.5-0.4-1-0.8-1.6-1.2c-0.6-0.4-1.2-0.6-1.8-0.9
					C323.8,42,323.1,41.7,322.5,41.6"/>
			</g>
		</g>
	</g>
</g>
</svg>
